# xmcd
#
# Track frame offsets: 
#        182
#        12302
#        28795
#        43897
#        59207
#        70897
#        83750
#        97040
#        110080
#        125522
#        138825
#        151947
#
# Disc length: 2225 seconds
#
# Revision: 2
# Processed by: cddbd v1.5.2PL0 Copyright (c) Steve Scherf et al.
# Submitted via: ExactAudioCopy v0.99pb5
#
DISCID=aa08af0c
DTITLE=Die Mooskirchner - Juche-auf der hohen Alm
DYEAR=1900
DGENRE=Folk
TTITLE0=Juche auf der hohen Alm
TTITLE1=Es war nix
TTITLE2=Gabriela
TTITLE3=Rock'n Roll am Bauernhof
TTITLE4=Der Sportler
TTITLE5=Österreich ist schön
TTITLE6=Mama, Mama,Mama
TTITLE7=Des macht doch nix
TTITLE8=Tabu
TTITLE9=Jo,so a Durcheinand
TTITLE10=Grüss euch Gott
TTITLE11=Sepp let's Go
EXTD=CD 158.775
EXTT0=
EXTT1=
EXTT2=
EXTT3=
EXTT4=
EXTT5=
EXTT6=
EXTT7=
EXTT8=
EXTT9=
EXTT10=
EXTT11=
PLAYORDER=
